<svg width="30" height="30" fill="none" xmlns="http://www.w3.org/2000/svg"><g opacity=".8" clip-path="url(#a)" fill="#fff"><path d="M14.977 0C10.11 0 6.152 3.959 6.152 8.824v12.352c0 4.866 3.959 8.824 8.825 8.824s8.824-3.959 8.824-8.824V8.824C23.801 3.96 19.843 0 14.977 0ZM22 21.176a7.032 7.032 0 0 1-7.024 7.024 7.033 7.033 0 0 1-7.025-7.024V8.824A7.032 7.032 0 0 1 14.977 1.8 7.032 7.032 0 0 1 22 8.824v12.352Z"/><path d="M14.977 5.968a.9.9 0 0 0-.9.9v4.142a.9.9 0 0 0 1.8 0V6.868a.9.9 0 0 0-.9-.9Z"/></g><defs><clipPath id="a"><path fill="#fff" d="M0 0h30v30H0z"/></clipPath></defs></svg>