<svg width="160" height="46" fill="none" xmlns="http://www.w3.org/2000/svg"><g clip-path="url(#a)"><path d="M36.723 33.864a18.12 18.12 0 0 1-2.164 3.033l.022.023-.766.768a17.914 17.914 0 0 1-12.79 5.323 17.918 17.918 0 0 1-12.752-5.283 17.918 17.918 0 0 1-5.284-12.753c0-.356.01-.717.032-1.076.003-.049.005-.098.01-.15v-.014l.007-.099v-.017c.005-.073.013-.15.02-.223.005-.062.01-.126.017-.192l.03-.29c.007-.056.012-.12.022-.182l.032-.258.022-.147a6.12 6.12 0 0 1 .04-.26c.006-.047.016-.1.024-.152a11.228 11.228 0 0 1 .059-.32l.034-.18c.015-.07.027-.14.044-.213.103-.491.231-.985.376-1.466l.005-.012c.017-.064.037-.128.059-.19l.051-.164c.104-.315.217-.634.337-.94.017-.043.034-.09.052-.133.02-.047.036-.096.058-.148l.08-.191c.019-.05.043-.106.068-.16l.01-.025c.034-.073.066-.15.1-.223a17.783 17.783 0 0 1 1.714-2.984l.104-.14c.071-.099.142-.197.216-.29.035-.044.071-.094.108-.14.079-.104.16-.204.238-.302.047-.057.094-.118.143-.175l.142-.17c.047-.056.099-.115.148-.171l.17-.194-2.118-2.12A20.892 20.892 0 0 0 0 24.972 20.884 20.884 0 0 0 6.158 39.84a20.884 20.884 0 0 0 14.867 6.158c5.635 0 10.928-2.201 14.902-6.195a21.084 21.084 0 0 0 2.977-3.76l-2.181-2.179Z" fill="#C8A35F"/><path d="M9.813 36.188a15.758 15.758 0 0 0 11.212 4.644c.133 0 .265-.002.398-.005.066 0 .13-.002.197-.005h.01l.292-.014.233-.015.106-.008.054-.004c.07-.005.142-.013.216-.02.064-.005.123-.01.184-.017l.12-.013.081-.01.158-.019c.196-.025.388-.052.577-.084.054-.01.105-.02.157-.026l.017-.003.123-.022.02-.005c.054-.01.108-.02.162-.032.142-.027.282-.056.42-.088.093-.02.186-.045.28-.067l.012-.002a.76.76 0 0 0 .071-.017c.07-.017.13-.035.194-.05.054-.014.106-.026.155-.041.044-.013.084-.022.12-.035.037-.01.067-.017.094-.027l.022-.007c.04-.01.078-.022.118-.034a3.87 3.87 0 0 0 .18-.057l.13-.04c.132-.043.265-.088.395-.134l.105-.037.027-.01.128-.047.182-.068c.049-.02.093-.035.135-.052.081-.032.155-.061.228-.093l.221-.094c.07-.03.138-.059.202-.088l.105-.047.032-.014.163-.077c.334-.16.663-.329.98-.51.034-.02.066-.04.1-.057.074-.042.148-.086.219-.128l.363-.223c.16-.103.327-.211.506-.334l.148-.103.02-.015.11-.079.01-.007.08-.06.01-.006c.047-.032.091-.067.136-.101.051-.037.1-.076.147-.113.034-.027.061-.05.091-.071l.034-.027c.05-.04.101-.079.15-.12l.152-.123.013-.01c.096-.079.189-.16.285-.241.03-.025.056-.05.086-.076l-2.12-2.122a12.819 12.819 0 0 1-8.337 3.063c-7.093 0-12.865-5.773-12.865-12.866 0-3.459 1.353-6.703 3.807-9.137a12.979 12.979 0 0 1 4.023-2.705l-2.25-2.25a15.923 15.923 0 0 0-3.895 2.845c-3.021 2.999-4.684 6.99-4.684 11.244 0 4.237 1.65 8.219 4.645 11.215Z" fill="#fff"/><path d="M39.02 21.025a20.884 20.884 0 0 0-6.158-14.867A20.89 20.89 0 0 0 17.992 0c-5.635 0-10.928 2.198-14.9 6.195a21.12 21.12 0 0 0-2.979 3.76l2.184 2.184A18.119 18.119 0 0 1 4.46 9.105l-.023-.022.767-.769a17.91 17.91 0 0 1 12.79-5.322c4.816 0 9.345 1.876 12.752 5.283a17.914 17.914 0 0 1 5.283 12.753c0 .356-.01.72-.032 1.076-.002.046-.005.098-.01.15l-.007.11v.017c-.005.074-.012.15-.02.224-.004.061-.01.127-.017.194l-.03.29c-.007.056-.011.117-.021.181l-.032.258-.022.145c-.01.084-.025.172-.04.263-.007.047-.017.1-.024.152-.008.044-.015.088-.025.133a10.738 10.738 0 0 1-.071.366 17.599 17.599 0 0 1-.42 1.68c-.02.066-.04.135-.064.204l-.051.164c-.104.317-.217.634-.337.94l-.052.131-.059.148-.078.191c-.02.05-.044.106-.069.16l-.01.024-.1.224a17.79 17.79 0 0 1-1.714 2.984l-.102.14a17.418 17.418 0 0 1-.324.43c-.078.103-.16.204-.238.302-.047.056-.093.118-.142.174a6.206 6.206 0 0 1-.133.16l-.01.01c-.049.056-.098.115-.15.172l-.17.194 2.118 2.12a20.89 20.89 0 0 0 5.446-14.114Z" fill="#fff"/><path d="m23.027 32.87 2.25 2.25a15.922 15.922 0 0 0 3.895-2.845c3.02-3 4.68-6.993 4.68-11.247 0-4.235-1.651-8.219-4.645-11.213a15.755 15.755 0 0 0-11.613-4.642c-.067 0-.13.002-.197.005h-.007l-.292.015-.234.014-.105.008-.054.005a6.884 6.884 0 0 0-.214.02c-.064.007-.123.011-.184.019-.044.005-.084.01-.12.012l-.062.008-.02.002a19.2 19.2 0 0 0-.732.103c-.054.01-.105.017-.157.027l-.017.003-.12.022-.027.005-.157.03a9.232 9.232 0 0 0-.425.088c-.094.02-.187.044-.28.066l-.013.002a.759.759 0 0 0-.071.017c-.069.018-.13.035-.194.05l-.155.041c-.044.013-.083.022-.123.035l-.093.027-.022.007a3.995 3.995 0 0 0-.297.09 3.776 3.776 0 0 1-.13.04c-.133.045-.266.089-.396.135l-.103.037-.03.01c-.044.017-.083.03-.122.047a3.796 3.796 0 0 0-.187.071l-.135.054a7.346 7.346 0 0 0-.229.093l-.22.094-.202.088a3.495 3.495 0 0 1-.106.047l-.031.015c-.054.024-.109.051-.163.076-.334.16-.663.329-.98.51l-.1.057-.207.12-.228.14c-.047.03-.096.062-.145.091-.162.103-.327.212-.504.334-.046.032-.09.064-.135.094l-.03.02a7.64 7.64 0 0 0-.115.083l-.014.01c-.025.02-.05.036-.076.056l-.01.008c-.047.031-.091.066-.135.1-.052.037-.099.076-.148.113l-.09.071-.035.027-.15.12c-.056.045-.11.092-.164.136a12.364 12.364 0 0 0-.371.317l2.122 2.122a12.821 12.821 0 0 1 8.336-3.065c7.094 0 12.866 5.772 12.866 12.865 0 3.459-1.353 6.703-3.807 9.137a13.015 13.015 0 0 1-4.021 2.702Z" fill="#C8A35F"/></g><g clip-path="url(#b)" fill="#fff"><path d="m57.92 30.235-.614 1.855h1.24l-.613-1.855h-.013ZM58.808 19.75c-.21.933-.608 1.645-1.182 2.135-.588.47-1.3.711-2.148.711a3.84 3.84 0 0 1-1.94-.522c-.587-.346-1.024-.881-1.299-1.593-.3-.712-.437-1.56-.437-2.514 0-.744.124-1.475.366-2.167a3.346 3.346 0 0 1 1.234-1.665c.587-.398 1.331-.607 2.2-.607.764 0 1.384.176 1.887.555.503.365.881.953 1.142 1.769l.033.085 1.737-.398-.033-.105c-.327-1.077-.901-1.926-1.717-2.533-.816-.588-1.822-.881-3.017-.881-1.038 0-2.01.228-2.898.692a4.982 4.982 0 0 0-2.024 2.082c-.47.901-.712 1.972-.712 3.173 0 1.11.209 2.168.627 3.121.418.973 1.038 1.737 1.854 2.24.797.522 1.854.783 3.14.783 1.234 0 2.292-.346 3.154-1.005.868-.66 1.456-1.646 1.789-2.912l.032-.105-1.75-.43-.038.09ZM74.692 12.784C73.805 12.26 72.8 12 71.71 12c-1.685 0-3.069.555-4.127 1.645-1.057 1.09-1.593 2.638-1.593 4.558 0 1.025.229 1.99.692 2.911.451.921 1.13 1.646 2.011 2.188.882.535 1.894.796 2.997.796 1.038 0 2.011-.241 2.893-.731.9-.47 1.593-1.195 2.095-2.135.483-.92.732-1.991.732-3.173 0-1.162-.242-2.2-.693-3.121a5.192 5.192 0 0 0-2.023-2.155Zm-.189 8.63c-.731.778-1.684 1.182-2.807 1.182-1.11 0-2.044-.398-2.795-1.162-.73-.783-1.11-1.854-1.11-3.205 0-1.685.399-2.912 1.163-3.624a3.934 3.934 0 0 1 2.755-1.077c.764 0 1.436.19 2.043.555a3.613 3.613 0 0 1 1.372 1.58c.313.679.47 1.488.47 2.409 0 1.436-.366 2.566-1.09 3.343ZM92.569 12.503l-2.795 7.959c-.228.64-.398 1.142-.522 1.54l-.47-1.384-2.788-8.22h-.19v4.25l2.586 7.457h1.541l2.638-7.443v-4.16ZM85.178 12.398h-1.697v11.707h1.697V12.398ZM94.874 12.398h-1.685v11.707h1.685V12.398ZM102.695 12.398h-1.75v11.707h1.75V12.398ZM109.733 14.22c-.261-.483-.574-.882-.985-1.143-.399-.28-.901-.47-1.476-.555-.418-.085-1.025-.124-1.802-.124h-2.148v1.56h2.272c.692 0 1.162.033 1.423.105.379.104.693.313.921.64.242.326.346.712.346 1.182 0 .626-.189 1.11-.588 1.456-.398.346-1.09.522-2.063.522h-2.304v1.58h2.291c1.665 0 2.86-.366 3.5-1.058.659-.692.986-1.54.986-2.546a3.67 3.67 0 0 0-.373-1.62ZM120.741 12.398l-4.576 11.707h1.854l.522-1.371h-.02l1.319-3.552.281-.731.973-2.586h.019c.209-.574.379-1.162.523-1.736.176.554.418 1.234.711 1.99l1.182 3.05h-2.997l-.535 1.436h4.094l1.371 3.487h1.991l-4.89-11.707h-1.822v.013ZM134.968 12.398h-1.632v11.707h1.632V12.398ZM141.066 21.193l-.033-.053v2.965h1.731V12.398h-1.698v8.795ZM135.588 16.146l4.819 7.07V20.22l-4.819-7.058v2.984ZM157.917 12.398l-2.304 3.434c-.451.68-.849 1.32-1.195 1.874v-.02l-.973 1.476v4.943h1.769v-4.943l4.766-6.764h-2.063ZM154.052 17.08l-.725-1.163-2.343-3.519h-2.149l4.231 6.21.986-1.529ZM50 29.942h1.162v3.669h.647v-3.67h1.162v-.574H50v.575Z"/><path d="m57.658 29.367-1.54 4.244h.679l.326-.947h1.613l.326.947h.68L58.2 29.367h-.542Zm-.352 2.723.614-1.855h.013l.613 1.855h-1.24ZM65.036 31.88h.862v.223c-.007.267-.085.483-.248.646a.827.827 0 0 1-.62.255.759.759 0 0 1-.392-.098.676.676 0 0 1-.268-.216.68.68 0 0 1-.163-.359c-.033-.15-.046-.43-.046-.849 0-.418.013-.698.046-.855a.737.737 0 0 1 .163-.352.736.736 0 0 1 .268-.216.91.91 0 0 1 .392-.091.881.881 0 0 1 .522.176.936.936 0 0 1 .287.437h.68a1.582 1.582 0 0 0-.49-.894c-.262-.242-.594-.36-1-.366-.332.007-.613.085-.835.242-.229.15-.392.326-.496.522a1.17 1.17 0 0 0-.144.405c-.026.17-.046.496-.046.992 0 .483.014.816.046.986.013.092.033.17.059.229.026.058.052.117.085.183.104.195.267.365.496.515.222.157.503.235.836.242a1.52 1.52 0 0 0 1.077-.438c.28-.287.43-.64.437-1.07v-.862h-1.508v.614ZM71.513 29.367h-.64v4.244h2.71v-.607h-2.07v-3.637ZM78.407 29.367h-.64v4.244h.64v-4.244ZM85.413 32.383h-.006l-1.926-3.016h-.601v4.244h.64v-3.017h.013l1.92 3.017h.606v-4.244h-.646v3.016ZM90.532 33.61h2.71v-.606h-2.064v-1.247h1.763v-.569h-1.763v-1.214h2.063v-.607h-2.71v4.244ZM103.805 31.88h.862v.223c-.007.267-.085.483-.248.646a.826.826 0 0 1-.62.255.757.757 0 0 1-.392-.098.682.682 0 0 1-.268-.216.677.677 0 0 1-.163-.359c-.033-.15-.046-.43-.046-.849 0-.418.013-.698.046-.855a.739.739 0 0 1 .163-.352.743.743 0 0 1 .268-.216.866.866 0 0 1 .914.085.934.934 0 0 1 .287.437h.679a1.58 1.58 0 0 0-.489-.894c-.255-.242-.595-.36-.999-.366-.333.007-.614.085-.836.242-.229.15-.392.326-.496.522a1.162 1.162 0 0 0-.144.405c-.026.17-.046.496-.046.992 0 .483.013.816.046.986.013.092.033.17.059.229.026.058.052.117.085.183.104.195.267.365.496.515.222.157.503.235.836.242.431-.007.79-.157 1.077-.438a1.5 1.5 0 0 0 .437-1.07v-.862h-1.508v.614ZM112.339 30.092a1.404 1.404 0 0 0-.484-.522c-.228-.157-.509-.236-.842-.242-.333.006-.614.085-.836.242-.228.15-.391.326-.496.522a1.162 1.162 0 0 0-.143.405c-.026.17-.046.496-.046.992 0 .483.013.816.046.986.013.091.032.17.058.228.027.06.053.118.085.183.105.196.268.366.496.516.222.157.503.235.836.242.34-.007.62-.092.842-.242.222-.15.386-.32.484-.516a.995.995 0 0 0 .15-.411c.026-.17.039-.496.039-.986s-.013-.823-.039-.992a.999.999 0 0 0-.15-.405Zm-.503 2.246a.808.808 0 0 1-.17.359.82.82 0 0 1-.653.313.76.76 0 0 1-.392-.098.671.671 0 0 1-.267-.215.677.677 0 0 1-.163-.36c-.033-.15-.046-.43-.046-.848s.013-.699.046-.855a.73.73 0 0 1 .163-.353.731.731 0 0 1 .267-.215.914.914 0 0 1 .392-.092c.15.007.287.033.398.092.105.058.19.13.255.215a.686.686 0 0 1 .17.353c.026.15.046.437.046.855s-.014.699-.046.849ZM116.85 33.61h2.71v-.606h-2.064v-1.247h1.763v-.569h-1.763v-1.214h2.064v-.607h-2.71v4.244ZM125.325 31.189c-.203-.026-.359-.046-.477-.066-.209-.039-.359-.11-.457-.209a.456.456 0 0 1-.144-.333c.007-.202.072-.359.216-.456.13-.099.3-.15.496-.15.385.006.731.117 1.051.326l.359-.53a2.351 2.351 0 0 0-1.377-.437c-.438.007-.777.118-1.019.346-.248.229-.372.53-.372.895 0 .307.098.568.294.784.189.208.47.345.836.404.202.026.391.052.561.079.372.065.555.254.555.568-.007.385-.287.58-.836.587a1.88 1.88 0 0 1-1.208-.424l-.424.483c.451.385.992.581 1.619.581.973-.013 1.469-.424 1.489-1.234 0-.3-.092-.561-.281-.79-.189-.222-.483-.366-.881-.424ZM138.069 31.189h-1.678v-1.822h-.646v4.244h.646v-1.854h1.678v1.854h.647v-4.244h-.647v1.822ZM143.188 33.61h2.709v-.606h-2.069v-1.247h1.763v-.569h-1.763v-1.214h2.069v-.607h-2.709v4.244ZM153.021 30.549c-.014-.392-.151-.692-.425-.908-.222-.189-.509-.28-.862-.28h-1.658v4.243h.646V31.79h.823l.875 1.815h.764l-.986-1.88c.542-.202.816-.594.823-1.175Zm-2.299.679v-1.286h1.006c.202 0 .365.045.47.13.137.098.209.261.215.483a.65.65 0 0 1-.176.464c-.117.137-.3.209-.542.209h-.973ZM157.29 33.61H160v-.606h-2.07v-1.247h1.763v-.569h-1.763v-1.214H160v-.607h-2.71v4.244Z"/></g><defs><clipPath id="a"><path fill="#fff" d="M0 0h39.019v46H0z"/></clipPath><clipPath id="b"><path fill="#fff" transform="translate(50 12)" d="M0 0h110v21.643H0z"/></clipPath></defs></svg>